<?xml version="1.0" encoding="UTF-8"?>
<svg id="Layer_1" data-name="Layer 1" xmlns="http://www.w3.org/2000/svg" viewBox="0 0 1000 1000">
  <defs>
    <style>
      .cls-1 {
        fill: #fff;
      }

      .cls-2 {
        fill: #c1272d;
      }
    </style>
  </defs>
  <path class="cls-2" d="M0,856.86h471.49c137.9,0,262.38-82.6,315.96-209.67l212.55-504.04H300.97L0,856.86Z"/>
  <path class="cls-1" d="M272.89,604.3v-42.91h144.94v31.58c0,22.13,3.91,38.73,11.74,49.8,8.91,14.31,23.34,21.46,43.32,21.46,15.92,0,28.6-5.26,38.06-15.79,9.44-10.79,14.17-26.58,14.17-47.37v-282.58h-159.51c0-68.64,55.65-124.29,124.29-124.29h180.16v410.11c0,61.54-19.57,109.04-58.71,142.51-39.14,33.47-85.97,50.2-140.48,50.2s-99.86-16.86-139.27-50.6c-39.14-33.47-58.7-80.83-58.7-142.1Z"/>
</svg>